<mxfile host="65bd71144e">
    <diagram name="Page-1" id="Af2CoAbSZcckCuTcOnmQ">
        <mxGraphModel dx="464" dy="546" grid="1" gridSize="10" guides="1" tooltips="1" connect="1" arrows="1" fold="1" page="1" pageScale="1" pageWidth="827" pageHeight="1169" math="0" shadow="0">
            <root>
                <mxCell id="0"/>
                <mxCell id="1" parent="0"/>
                <mxCell id="42" value="ADSL" style="rounded=0;whiteSpace=wrap;html=1;fillColor=#f5f5f5;strokeColor=#666666;fontColor=#000000;" parent="1" vertex="1">
                    <mxGeometry x="221" y="450" width="308" height="17.5" as="geometry"/>
                </mxCell>
                <mxCell id="57" value="USUBJID" style="rounded=0;whiteSpace=wrap;html=1;fillColor=#f8cecc;strokeColor=none;" vertex="1" parent="1">
                    <mxGeometry x="221" y="468.5" width="60" height="20" as="geometry"/>
                </mxCell>
                <mxCell id="61" value="STUDYID" style="rounded=0;whiteSpace=wrap;html=1;fillColor=#f8cecc;strokeColor=none;" vertex="1" parent="1">
                    <mxGeometry x="283" y="468.5" width="60" height="20" as="geometry"/>
                </mxCell>
                <mxCell id="62" value="AGE" style="rounded=0;whiteSpace=wrap;html=1;fillColor=#dae8fc;strokeColor=none;" vertex="1" parent="1">
                    <mxGeometry x="345" y="468.5" width="60" height="20" as="geometry"/>
                </mxCell>
                <mxCell id="63" value="SEX" style="rounded=0;whiteSpace=wrap;html=1;fillColor=#dae8fc;strokeColor=none;" vertex="1" parent="1">
                    <mxGeometry x="407" y="468.5" width="60" height="20" as="geometry"/>
                </mxCell>
                <mxCell id="64" value="BMRKR1" style="rounded=0;whiteSpace=wrap;html=1;fillColor=#dae8fc;strokeColor=none;" vertex="1" parent="1">
                    <mxGeometry x="469" y="468.5" width="60" height="20" as="geometry"/>
                </mxCell>
                <mxCell id="67" value="" style="rounded=0;whiteSpace=wrap;html=1;fillColor=#f5e2e1;strokeColor=none;" vertex="1" parent="1">
                    <mxGeometry x="221" y="491.5" width="60" height="20" as="geometry"/>
                </mxCell>
                <mxCell id="68" value="" style="rounded=0;whiteSpace=wrap;html=1;fillColor=#f5e2e1;strokeColor=none;" vertex="1" parent="1">
                    <mxGeometry x="283" y="491.5" width="60" height="20" as="geometry"/>
                </mxCell>
                <mxCell id="69" value="" style="rounded=0;whiteSpace=wrap;html=1;fillColor=#eef4fb;strokeColor=none;" vertex="1" parent="1">
                    <mxGeometry x="345" y="491.5" width="60" height="20" as="geometry"/>
                </mxCell>
                <mxCell id="70" value="" style="rounded=0;whiteSpace=wrap;html=1;fillColor=#eef4fb;strokeColor=none;" vertex="1" parent="1">
                    <mxGeometry x="407" y="491.5" width="60" height="20" as="geometry"/>
                </mxCell>
                <mxCell id="71" value="" style="rounded=0;whiteSpace=wrap;html=1;fillColor=#eef4fb;strokeColor=none;" vertex="1" parent="1">
                    <mxGeometry x="469" y="491.5" width="60" height="20" as="geometry"/>
                </mxCell>
                <mxCell id="72" value="" style="rounded=0;whiteSpace=wrap;html=1;fillColor=#f5e2e1;strokeColor=none;" vertex="1" parent="1">
                    <mxGeometry x="221" y="513.5" width="60" height="20" as="geometry"/>
                </mxCell>
                <mxCell id="73" value="" style="rounded=0;whiteSpace=wrap;html=1;fillColor=#f5e2e1;strokeColor=none;" vertex="1" parent="1">
                    <mxGeometry x="283" y="513.5" width="60" height="20" as="geometry"/>
                </mxCell>
                <mxCell id="74" value="" style="rounded=0;whiteSpace=wrap;html=1;fillColor=#eef4fb;strokeColor=none;" vertex="1" parent="1">
                    <mxGeometry x="345" y="513.5" width="60" height="20" as="geometry"/>
                </mxCell>
                <mxCell id="75" value="" style="rounded=0;whiteSpace=wrap;html=1;fillColor=#eef4fb;strokeColor=none;" vertex="1" parent="1">
                    <mxGeometry x="407" y="513.5" width="60" height="20" as="geometry"/>
                </mxCell>
                <mxCell id="76" value="" style="rounded=0;whiteSpace=wrap;html=1;fillColor=#eef4fb;strokeColor=none;" vertex="1" parent="1">
                    <mxGeometry x="469" y="513.5" width="60" height="20" as="geometry"/>
                </mxCell>
                <mxCell id="77" value="" style="rounded=0;whiteSpace=wrap;html=1;fillColor=#f5e2e1;strokeColor=none;" vertex="1" parent="1">
                    <mxGeometry x="221" y="535.5" width="60" height="20" as="geometry"/>
                </mxCell>
                <mxCell id="78" value="" style="rounded=0;whiteSpace=wrap;html=1;fillColor=#f5e2e1;strokeColor=none;" vertex="1" parent="1">
                    <mxGeometry x="283" y="535.5" width="60" height="20" as="geometry"/>
                </mxCell>
                <mxCell id="79" value="" style="rounded=0;whiteSpace=wrap;html=1;fillColor=#eef4fb;strokeColor=none;" vertex="1" parent="1">
                    <mxGeometry x="345" y="535.5" width="60" height="20" as="geometry"/>
                </mxCell>
                <mxCell id="80" value="" style="rounded=0;whiteSpace=wrap;html=1;fillColor=#eef4fb;strokeColor=none;" vertex="1" parent="1">
                    <mxGeometry x="407" y="535.5" width="60" height="20" as="geometry"/>
                </mxCell>
                <mxCell id="81" value="" style="rounded=0;whiteSpace=wrap;html=1;fillColor=#eef4fb;strokeColor=none;" vertex="1" parent="1">
                    <mxGeometry x="469" y="535.5" width="60" height="20" as="geometry"/>
                </mxCell>
                <mxCell id="82" value="" style="rounded=0;whiteSpace=wrap;html=1;fillColor=#f5e2e1;strokeColor=none;" vertex="1" parent="1">
                    <mxGeometry x="221" y="557.5" width="60" height="20" as="geometry"/>
                </mxCell>
                <mxCell id="83" value="" style="rounded=0;whiteSpace=wrap;html=1;fillColor=#f5e2e1;strokeColor=none;" vertex="1" parent="1">
                    <mxGeometry x="283" y="557.5" width="60" height="20" as="geometry"/>
                </mxCell>
                <mxCell id="84" value="" style="rounded=0;whiteSpace=wrap;html=1;fillColor=#eef4fb;strokeColor=none;" vertex="1" parent="1">
                    <mxGeometry x="345" y="557.5" width="60" height="20" as="geometry"/>
                </mxCell>
                <mxCell id="85" value="" style="rounded=0;whiteSpace=wrap;html=1;fillColor=#eef4fb;strokeColor=none;" vertex="1" parent="1">
                    <mxGeometry x="407" y="557.5" width="60" height="20" as="geometry"/>
                </mxCell>
                <mxCell id="86" value="" style="rounded=0;whiteSpace=wrap;html=1;fillColor=#eef4fb;strokeColor=none;" vertex="1" parent="1">
                    <mxGeometry x="469" y="557.5" width="60" height="20" as="geometry"/>
                </mxCell>
                <mxCell id="87" value="" style="rounded=0;whiteSpace=wrap;html=1;fillColor=#f5e2e1;strokeColor=none;" vertex="1" parent="1">
                    <mxGeometry x="221" y="579.5" width="60" height="20" as="geometry"/>
                </mxCell>
                <mxCell id="88" value="" style="rounded=0;whiteSpace=wrap;html=1;fillColor=#f5e2e1;strokeColor=none;" vertex="1" parent="1">
                    <mxGeometry x="283" y="579.5" width="60" height="20" as="geometry"/>
                </mxCell>
                <mxCell id="89" value="" style="rounded=0;whiteSpace=wrap;html=1;fillColor=#eef4fb;strokeColor=none;" vertex="1" parent="1">
                    <mxGeometry x="345" y="579.5" width="60" height="20" as="geometry"/>
                </mxCell>
                <mxCell id="90" value="" style="rounded=0;whiteSpace=wrap;html=1;fillColor=#eef4fb;strokeColor=none;" vertex="1" parent="1">
                    <mxGeometry x="407" y="579.5" width="60" height="20" as="geometry"/>
                </mxCell>
                <mxCell id="91" value="" style="rounded=0;whiteSpace=wrap;html=1;fillColor=#eef4fb;strokeColor=none;" vertex="1" parent="1">
                    <mxGeometry x="469" y="579.5" width="60" height="20" as="geometry"/>
                </mxCell>
                <mxCell id="113" value="" style="rounded=0;whiteSpace=wrap;html=1;fillColor=#f8cecc;strokeColor=none;fontSize=13;" vertex="1" parent="1">
                    <mxGeometry x="590" y="380" width="20" height="20" as="geometry"/>
                </mxCell>
                <mxCell id="115" value="" style="rounded=0;whiteSpace=wrap;html=1;fillColor=#dae8fc;strokeColor=none;fontSize=13;" vertex="1" parent="1">
                    <mxGeometry x="590" y="410" width="20" height="20" as="geometry"/>
                </mxCell>
                <mxCell id="116" value="&lt;font color=&quot;#000000&quot; style=&quot;font-size: 13px;&quot;&gt;Foregin and Primary Key&lt;/font&gt;" style="text;html=1;strokeColor=none;fillColor=none;align=center;verticalAlign=middle;whiteSpace=wrap;rounded=0;fontColor=#00ffff;fontSize=13;" vertex="1" parent="1">
                    <mxGeometry x="610" y="382.5" width="160" height="15" as="geometry"/>
                </mxCell>
                <mxCell id="117" value="&lt;font color=&quot;#000000&quot; style=&quot;font-size: 13px;&quot;&gt;Other Columns&lt;/font&gt;" style="text;html=1;strokeColor=none;fillColor=none;align=center;verticalAlign=middle;whiteSpace=wrap;rounded=0;fontColor=#00ffff;fontSize=13;" vertex="1" parent="1">
                    <mxGeometry x="615" y="412.5" width="90" height="15" as="geometry"/>
                </mxCell>
                <mxCell id="119" value="STUDYID" style="rounded=0;whiteSpace=wrap;html=1;fillColor=#f8cecc;strokeColor=none;" vertex="1" parent="1">
                    <mxGeometry x="252" y="649.5" width="60" height="20" as="geometry"/>
                </mxCell>
                <mxCell id="120" value="PARAMCD" style="rounded=0;whiteSpace=wrap;html=1;fillColor=#f8cecc;strokeColor=none;" vertex="1" parent="1">
                    <mxGeometry x="314" y="649.5" width="60" height="20" as="geometry"/>
                </mxCell>
                <mxCell id="121" value="AVAL" style="rounded=0;whiteSpace=wrap;html=1;fillColor=#dae8fc;strokeColor=none;" vertex="1" parent="1">
                    <mxGeometry x="376" y="649.5" width="60" height="20" as="geometry"/>
                </mxCell>
                <mxCell id="122" value="AVALC" style="rounded=0;whiteSpace=wrap;html=1;fillColor=#dae8fc;strokeColor=none;" vertex="1" parent="1">
                    <mxGeometry x="438" y="649.5" width="60" height="20" as="geometry"/>
                </mxCell>
                <mxCell id="123" value="ASEQ" style="rounded=0;whiteSpace=wrap;html=1;fillColor=#dae8fc;strokeColor=none;" vertex="1" parent="1">
                    <mxGeometry x="500" y="649.5" width="60" height="20" as="geometry"/>
                </mxCell>
                <mxCell id="124" value="" style="rounded=0;whiteSpace=wrap;html=1;fillColor=#f5e2e1;strokeColor=none;" vertex="1" parent="1">
                    <mxGeometry x="252" y="672.5" width="60" height="20" as="geometry"/>
                </mxCell>
                <mxCell id="125" value="OS" style="rounded=0;whiteSpace=wrap;html=1;fillColor=#f5e2e1;strokeColor=none;" vertex="1" parent="1">
                    <mxGeometry x="314" y="672.5" width="60" height="20" as="geometry"/>
                </mxCell>
                <mxCell id="126" value="" style="rounded=0;whiteSpace=wrap;html=1;fillColor=#eef4fb;strokeColor=none;" vertex="1" parent="1">
                    <mxGeometry x="376" y="672.5" width="60" height="20" as="geometry"/>
                </mxCell>
                <mxCell id="127" value="" style="rounded=0;whiteSpace=wrap;html=1;fillColor=#eef4fb;strokeColor=none;" vertex="1" parent="1">
                    <mxGeometry x="438" y="672.5" width="60" height="20" as="geometry"/>
                </mxCell>
                <mxCell id="128" value="" style="rounded=0;whiteSpace=wrap;html=1;fillColor=#eef4fb;strokeColor=none;" vertex="1" parent="1">
                    <mxGeometry x="500" y="672.5" width="60" height="20" as="geometry"/>
                </mxCell>
                <mxCell id="129" value="" style="rounded=0;whiteSpace=wrap;html=1;fillColor=#f5e2e1;strokeColor=none;" vertex="1" parent="1">
                    <mxGeometry x="252" y="694.5" width="60" height="20" as="geometry"/>
                </mxCell>
                <mxCell id="130" value="PFS" style="rounded=0;whiteSpace=wrap;html=1;fillColor=#f5e2e1;strokeColor=none;" vertex="1" parent="1">
                    <mxGeometry x="314" y="694.5" width="60" height="20" as="geometry"/>
                </mxCell>
                <mxCell id="131" value="" style="rounded=0;whiteSpace=wrap;html=1;fillColor=#eef4fb;strokeColor=none;" vertex="1" parent="1">
                    <mxGeometry x="376" y="694.5" width="60" height="20" as="geometry"/>
                </mxCell>
                <mxCell id="132" value="" style="rounded=0;whiteSpace=wrap;html=1;fillColor=#eef4fb;strokeColor=none;" vertex="1" parent="1">
                    <mxGeometry x="438" y="694.5" width="60" height="20" as="geometry"/>
                </mxCell>
                <mxCell id="133" value="" style="rounded=0;whiteSpace=wrap;html=1;fillColor=#eef4fb;strokeColor=none;" vertex="1" parent="1">
                    <mxGeometry x="500" y="694.5" width="60" height="20" as="geometry"/>
                </mxCell>
                <mxCell id="134" value="" style="rounded=0;whiteSpace=wrap;html=1;fillColor=#f5e2e1;strokeColor=none;" vertex="1" parent="1">
                    <mxGeometry x="252" y="716.5" width="60" height="20" as="geometry"/>
                </mxCell>
                <mxCell id="135" value="OS" style="rounded=0;whiteSpace=wrap;html=1;fillColor=#f5e2e1;strokeColor=none;" vertex="1" parent="1">
                    <mxGeometry x="314" y="716.5" width="60" height="20" as="geometry"/>
                </mxCell>
                <mxCell id="136" value="" style="rounded=0;whiteSpace=wrap;html=1;fillColor=#eef4fb;strokeColor=none;" vertex="1" parent="1">
                    <mxGeometry x="376" y="716.5" width="60" height="20" as="geometry"/>
                </mxCell>
                <mxCell id="137" value="" style="rounded=0;whiteSpace=wrap;html=1;fillColor=#eef4fb;strokeColor=none;" vertex="1" parent="1">
                    <mxGeometry x="438" y="716.5" width="60" height="20" as="geometry"/>
                </mxCell>
                <mxCell id="138" value="" style="rounded=0;whiteSpace=wrap;html=1;fillColor=#eef4fb;strokeColor=none;" vertex="1" parent="1">
                    <mxGeometry x="500" y="716.5" width="60" height="20" as="geometry"/>
                </mxCell>
                <mxCell id="139" value="" style="rounded=0;whiteSpace=wrap;html=1;fillColor=#f5e2e1;strokeColor=none;" vertex="1" parent="1">
                    <mxGeometry x="252" y="738.5" width="60" height="20" as="geometry"/>
                </mxCell>
                <mxCell id="140" value="OS" style="rounded=0;whiteSpace=wrap;html=1;fillColor=#f5e2e1;strokeColor=none;" vertex="1" parent="1">
                    <mxGeometry x="314" y="738.5" width="60" height="20" as="geometry"/>
                </mxCell>
                <mxCell id="141" value="" style="rounded=0;whiteSpace=wrap;html=1;fillColor=#eef4fb;strokeColor=none;" vertex="1" parent="1">
                    <mxGeometry x="376" y="738.5" width="60" height="20" as="geometry"/>
                </mxCell>
                <mxCell id="142" value="" style="rounded=0;whiteSpace=wrap;html=1;fillColor=#eef4fb;strokeColor=none;" vertex="1" parent="1">
                    <mxGeometry x="438" y="738.5" width="60" height="20" as="geometry"/>
                </mxCell>
                <mxCell id="143" value="" style="rounded=0;whiteSpace=wrap;html=1;fillColor=#eef4fb;strokeColor=none;" vertex="1" parent="1">
                    <mxGeometry x="500" y="738.5" width="60" height="20" as="geometry"/>
                </mxCell>
                <mxCell id="144" value="" style="rounded=0;whiteSpace=wrap;html=1;fillColor=#f5e2e1;strokeColor=none;" vertex="1" parent="1">
                    <mxGeometry x="252" y="760.5" width="60" height="20" as="geometry"/>
                </mxCell>
                <mxCell id="145" value="OS" style="rounded=0;whiteSpace=wrap;html=1;fillColor=#f5e2e1;strokeColor=none;" vertex="1" parent="1">
                    <mxGeometry x="314" y="760.5" width="60" height="20" as="geometry"/>
                </mxCell>
                <mxCell id="146" value="" style="rounded=0;whiteSpace=wrap;html=1;fillColor=#eef4fb;strokeColor=none;" vertex="1" parent="1">
                    <mxGeometry x="376" y="760.5" width="60" height="20" as="geometry"/>
                </mxCell>
                <mxCell id="147" value="" style="rounded=0;whiteSpace=wrap;html=1;fillColor=#eef4fb;strokeColor=none;" vertex="1" parent="1">
                    <mxGeometry x="438" y="760.5" width="60" height="20" as="geometry"/>
                </mxCell>
                <mxCell id="148" value="" style="rounded=0;whiteSpace=wrap;html=1;fillColor=#eef4fb;strokeColor=none;" vertex="1" parent="1">
                    <mxGeometry x="500" y="760.5" width="60" height="20" as="geometry"/>
                </mxCell>
                <mxCell id="149" value="" style="rounded=0;whiteSpace=wrap;html=1;fillColor=#f5e2e1;strokeColor=none;" vertex="1" parent="1">
                    <mxGeometry x="252" y="782.5" width="60" height="20" as="geometry"/>
                </mxCell>
                <mxCell id="150" value="EFS" style="rounded=0;whiteSpace=wrap;html=1;fillColor=#f5e2e1;strokeColor=none;" vertex="1" parent="1">
                    <mxGeometry x="314" y="782.5" width="60" height="20" as="geometry"/>
                </mxCell>
                <mxCell id="151" value="" style="rounded=0;whiteSpace=wrap;html=1;fillColor=#eef4fb;strokeColor=none;" vertex="1" parent="1">
                    <mxGeometry x="376" y="782.5" width="60" height="20" as="geometry"/>
                </mxCell>
                <mxCell id="152" value="" style="rounded=0;whiteSpace=wrap;html=1;fillColor=#eef4fb;strokeColor=none;" vertex="1" parent="1">
                    <mxGeometry x="438" y="782.5" width="60" height="20" as="geometry"/>
                </mxCell>
                <mxCell id="153" value="" style="rounded=0;whiteSpace=wrap;html=1;fillColor=#eef4fb;strokeColor=none;" vertex="1" parent="1">
                    <mxGeometry x="500" y="782.5" width="60" height="20" as="geometry"/>
                </mxCell>
                <mxCell id="154" value="" style="rounded=0;whiteSpace=wrap;html=1;fillColor=#f5e2e1;strokeColor=none;" vertex="1" parent="1">
                    <mxGeometry x="252" y="804.5" width="60" height="20" as="geometry"/>
                </mxCell>
                <mxCell id="155" value="PFS" style="rounded=0;whiteSpace=wrap;html=1;fillColor=#f5e2e1;strokeColor=none;" vertex="1" parent="1">
                    <mxGeometry x="314" y="804.5" width="60" height="20" as="geometry"/>
                </mxCell>
                <mxCell id="156" value="" style="rounded=0;whiteSpace=wrap;html=1;fillColor=#eef4fb;strokeColor=none;" vertex="1" parent="1">
                    <mxGeometry x="376" y="804.5" width="60" height="20" as="geometry"/>
                </mxCell>
                <mxCell id="157" value="" style="rounded=0;whiteSpace=wrap;html=1;fillColor=#eef4fb;strokeColor=none;" vertex="1" parent="1">
                    <mxGeometry x="438" y="804.5" width="60" height="20" as="geometry"/>
                </mxCell>
                <mxCell id="158" value="" style="rounded=0;whiteSpace=wrap;html=1;fillColor=#eef4fb;strokeColor=none;" vertex="1" parent="1">
                    <mxGeometry x="500" y="804.5" width="60" height="20" as="geometry"/>
                </mxCell>
                <mxCell id="169" value="USUBJID" style="rounded=0;whiteSpace=wrap;html=1;fillColor=#f8cecc;strokeColor=none;" vertex="1" parent="1">
                    <mxGeometry x="190" y="649.5" width="60" height="20" as="geometry"/>
                </mxCell>
                <mxCell id="170" value="" style="rounded=0;whiteSpace=wrap;html=1;fillColor=#f5e2e1;strokeColor=none;" vertex="1" parent="1">
                    <mxGeometry x="190" y="672.5" width="60" height="20" as="geometry"/>
                </mxCell>
                <mxCell id="171" value="" style="rounded=0;whiteSpace=wrap;html=1;fillColor=#f5e2e1;strokeColor=none;" vertex="1" parent="1">
                    <mxGeometry x="190" y="694.5" width="60" height="20" as="geometry"/>
                </mxCell>
                <mxCell id="172" value="" style="rounded=0;whiteSpace=wrap;html=1;fillColor=#f5e2e1;strokeColor=none;" vertex="1" parent="1">
                    <mxGeometry x="190" y="716.5" width="60" height="20" as="geometry"/>
                </mxCell>
                <mxCell id="173" value="" style="rounded=0;whiteSpace=wrap;html=1;fillColor=#f5e2e1;strokeColor=none;" vertex="1" parent="1">
                    <mxGeometry x="190" y="738.5" width="60" height="20" as="geometry"/>
                </mxCell>
                <mxCell id="174" value="" style="rounded=0;whiteSpace=wrap;html=1;fillColor=#f5e2e1;strokeColor=none;" vertex="1" parent="1">
                    <mxGeometry x="190" y="760.5" width="60" height="20" as="geometry"/>
                </mxCell>
                <mxCell id="175" value="" style="rounded=0;whiteSpace=wrap;html=1;fillColor=#f5e2e1;strokeColor=none;" vertex="1" parent="1">
                    <mxGeometry x="190" y="782.5" width="60" height="20" as="geometry"/>
                </mxCell>
                <mxCell id="176" value="" style="rounded=0;whiteSpace=wrap;html=1;fillColor=#f5e2e1;strokeColor=none;" vertex="1" parent="1">
                    <mxGeometry x="190" y="804.5" width="60" height="20" as="geometry"/>
                </mxCell>
                <mxCell id="179" value="ADTTE" style="rounded=0;whiteSpace=wrap;html=1;fillColor=#f5f5f5;strokeColor=#666666;fontColor=#000000;" vertex="1" parent="1">
                    <mxGeometry x="190" y="631" width="370" height="17.5" as="geometry"/>
                </mxCell>
                <mxCell id="180" value="" style="shape=flexArrow;endArrow=classic;html=1;fontColor=#000000;fillColor=#f5f5f5;strokeColor=default;" edge="1" parent="1">
                    <mxGeometry width="50" height="50" relative="1" as="geometry">
                        <mxPoint x="560" y="535.5" as="sourcePoint"/>
                        <mxPoint x="760" y="536" as="targetPoint"/>
                    </mxGeometry>
                </mxCell>
                <mxCell id="181" value="Selected ADSL" style="rounded=0;whiteSpace=wrap;html=1;fillColor=#f5f5f5;strokeColor=#666666;fontColor=#000000;" vertex="1" parent="1">
                    <mxGeometry x="781" y="460" width="184" height="17.5" as="geometry"/>
                </mxCell>
                <mxCell id="182" value="USUBJID" style="rounded=0;whiteSpace=wrap;html=1;fillColor=#f8cecc;strokeColor=none;" vertex="1" parent="1">
                    <mxGeometry x="781" y="478.5" width="60" height="20" as="geometry"/>
                </mxCell>
                <mxCell id="183" value="STUDYID" style="rounded=0;whiteSpace=wrap;html=1;fillColor=#f8cecc;strokeColor=none;" vertex="1" parent="1">
                    <mxGeometry x="843" y="478.5" width="60" height="20" as="geometry"/>
                </mxCell>
                <mxCell id="184" value="AGE" style="rounded=0;whiteSpace=wrap;html=1;fillColor=#dae8fc;strokeColor=none;" vertex="1" parent="1">
                    <mxGeometry x="905" y="478.5" width="60" height="20" as="geometry"/>
                </mxCell>
                <mxCell id="187" value="" style="rounded=0;whiteSpace=wrap;html=1;fillColor=#f5e2e1;strokeColor=none;" vertex="1" parent="1">
                    <mxGeometry x="781" y="501.5" width="60" height="20" as="geometry"/>
                </mxCell>
                <mxCell id="188" value="" style="rounded=0;whiteSpace=wrap;html=1;fillColor=#f5e2e1;strokeColor=none;" vertex="1" parent="1">
                    <mxGeometry x="843" y="501.5" width="60" height="20" as="geometry"/>
                </mxCell>
                <mxCell id="189" value="" style="rounded=0;whiteSpace=wrap;html=1;fillColor=#eef4fb;strokeColor=none;" vertex="1" parent="1">
                    <mxGeometry x="905" y="501.5" width="60" height="20" as="geometry"/>
                </mxCell>
                <mxCell id="192" value="" style="rounded=0;whiteSpace=wrap;html=1;fillColor=#f5e2e1;strokeColor=none;" vertex="1" parent="1">
                    <mxGeometry x="781" y="523.5" width="60" height="20" as="geometry"/>
                </mxCell>
                <mxCell id="193" value="" style="rounded=0;whiteSpace=wrap;html=1;fillColor=#f5e2e1;strokeColor=none;" vertex="1" parent="1">
                    <mxGeometry x="843" y="523.5" width="60" height="20" as="geometry"/>
                </mxCell>
                <mxCell id="194" value="" style="rounded=0;whiteSpace=wrap;html=1;fillColor=#eef4fb;strokeColor=none;" vertex="1" parent="1">
                    <mxGeometry x="905" y="523.5" width="60" height="20" as="geometry"/>
                </mxCell>
                <mxCell id="197" value="" style="rounded=0;whiteSpace=wrap;html=1;fillColor=#f5e2e1;strokeColor=none;" vertex="1" parent="1">
                    <mxGeometry x="781" y="545.5" width="60" height="20" as="geometry"/>
                </mxCell>
                <mxCell id="198" value="" style="rounded=0;whiteSpace=wrap;html=1;fillColor=#f5e2e1;strokeColor=none;" vertex="1" parent="1">
                    <mxGeometry x="843" y="545.5" width="60" height="20" as="geometry"/>
                </mxCell>
                <mxCell id="199" value="" style="rounded=0;whiteSpace=wrap;html=1;fillColor=#eef4fb;strokeColor=none;" vertex="1" parent="1">
                    <mxGeometry x="905" y="545.5" width="60" height="20" as="geometry"/>
                </mxCell>
                <mxCell id="202" value="" style="rounded=0;whiteSpace=wrap;html=1;fillColor=#f5e2e1;strokeColor=none;" vertex="1" parent="1">
                    <mxGeometry x="781" y="567.5" width="60" height="20" as="geometry"/>
                </mxCell>
                <mxCell id="203" value="" style="rounded=0;whiteSpace=wrap;html=1;fillColor=#f5e2e1;strokeColor=none;" vertex="1" parent="1">
                    <mxGeometry x="843" y="567.5" width="60" height="20" as="geometry"/>
                </mxCell>
                <mxCell id="204" value="" style="rounded=0;whiteSpace=wrap;html=1;fillColor=#eef4fb;strokeColor=none;" vertex="1" parent="1">
                    <mxGeometry x="905" y="567.5" width="60" height="20" as="geometry"/>
                </mxCell>
                <mxCell id="207" value="" style="rounded=0;whiteSpace=wrap;html=1;fillColor=#f5e2e1;strokeColor=none;" vertex="1" parent="1">
                    <mxGeometry x="781" y="589.5" width="60" height="20" as="geometry"/>
                </mxCell>
                <mxCell id="208" value="" style="rounded=0;whiteSpace=wrap;html=1;fillColor=#f5e2e1;strokeColor=none;" vertex="1" parent="1">
                    <mxGeometry x="843" y="589.5" width="60" height="20" as="geometry"/>
                </mxCell>
                <mxCell id="209" value="" style="rounded=0;whiteSpace=wrap;html=1;fillColor=#eef4fb;strokeColor=none;" vertex="1" parent="1">
                    <mxGeometry x="905" y="589.5" width="60" height="20" as="geometry"/>
                </mxCell>
                <mxCell id="285" value="Select" style="text;html=1;strokeColor=none;fillColor=none;align=center;verticalAlign=middle;whiteSpace=wrap;rounded=0;fontColor=#000000;fontSize=24;" vertex="1" parent="1">
                    <mxGeometry x="610" y="505" width="100" height="18.5" as="geometry"/>
                </mxCell>
                <mxCell id="286" value="" style="shape=flexArrow;endArrow=classic;html=1;fontColor=#000000;fillColor=#f5f5f5;strokeColor=#666666;" edge="1" parent="1">
                    <mxGeometry width="50" height="50" relative="1" as="geometry">
                        <mxPoint x="580" y="745" as="sourcePoint"/>
                        <mxPoint x="740" y="745" as="targetPoint"/>
                    </mxGeometry>
                </mxCell>
                <mxCell id="287" value="Select + Filter" style="text;html=1;strokeColor=none;fillColor=none;align=center;verticalAlign=middle;whiteSpace=wrap;rounded=0;fontColor=#000000;fontSize=24;" vertex="1" parent="1">
                    <mxGeometry x="580" y="707" width="160" height="18.5" as="geometry"/>
                </mxCell>
                <mxCell id="288" value="STUDYID" style="rounded=0;whiteSpace=wrap;html=1;fillColor=#f8cecc;strokeColor=none;" vertex="1" parent="1">
                    <mxGeometry x="812" y="688" width="60" height="20" as="geometry"/>
                </mxCell>
                <mxCell id="289" value="PARAMCD" style="rounded=0;whiteSpace=wrap;html=1;fillColor=#f8cecc;strokeColor=none;" vertex="1" parent="1">
                    <mxGeometry x="874" y="688" width="60" height="20" as="geometry"/>
                </mxCell>
                <mxCell id="290" value="AVAL" style="rounded=0;whiteSpace=wrap;html=1;fillColor=#dae8fc;strokeColor=none;" vertex="1" parent="1">
                    <mxGeometry x="936" y="688" width="60" height="20" as="geometry"/>
                </mxCell>
                <mxCell id="293" value="" style="rounded=0;whiteSpace=wrap;html=1;fillColor=#f5e2e1;strokeColor=none;" vertex="1" parent="1">
                    <mxGeometry x="812" y="711" width="60" height="20" as="geometry"/>
                </mxCell>
                <mxCell id="294" value="OS" style="rounded=0;whiteSpace=wrap;html=1;fillColor=#f5e2e1;strokeColor=none;" vertex="1" parent="1">
                    <mxGeometry x="874" y="711" width="60" height="20" as="geometry"/>
                </mxCell>
                <mxCell id="295" value="" style="rounded=0;whiteSpace=wrap;html=1;fillColor=#eef4fb;strokeColor=none;" vertex="1" parent="1">
                    <mxGeometry x="936" y="711" width="60" height="20" as="geometry"/>
                </mxCell>
                <mxCell id="298" value="" style="rounded=0;whiteSpace=wrap;html=1;fillColor=#f5e2e1;strokeColor=none;" vertex="1" parent="1">
                    <mxGeometry x="812" y="733" width="60" height="20" as="geometry"/>
                </mxCell>
                <mxCell id="299" value="OS" style="rounded=0;whiteSpace=wrap;html=1;fillColor=#f5e2e1;strokeColor=none;" vertex="1" parent="1">
                    <mxGeometry x="874" y="733" width="60" height="20" as="geometry"/>
                </mxCell>
                <mxCell id="300" value="" style="rounded=0;whiteSpace=wrap;html=1;fillColor=#eef4fb;strokeColor=none;" vertex="1" parent="1">
                    <mxGeometry x="936" y="733" width="60" height="20" as="geometry"/>
                </mxCell>
                <mxCell id="303" value="" style="rounded=0;whiteSpace=wrap;html=1;fillColor=#f5e2e1;strokeColor=none;" vertex="1" parent="1">
                    <mxGeometry x="812" y="755" width="60" height="20" as="geometry"/>
                </mxCell>
                <mxCell id="304" value="OS" style="rounded=0;whiteSpace=wrap;html=1;fillColor=#f5e2e1;strokeColor=none;" vertex="1" parent="1">
                    <mxGeometry x="874" y="755" width="60" height="20" as="geometry"/>
                </mxCell>
                <mxCell id="305" value="" style="rounded=0;whiteSpace=wrap;html=1;fillColor=#eef4fb;strokeColor=none;" vertex="1" parent="1">
                    <mxGeometry x="936" y="755" width="60" height="20" as="geometry"/>
                </mxCell>
                <mxCell id="308" value="" style="rounded=0;whiteSpace=wrap;html=1;fillColor=#f5e2e1;strokeColor=none;" vertex="1" parent="1">
                    <mxGeometry x="812" y="777" width="60" height="20" as="geometry"/>
                </mxCell>
                <mxCell id="309" value="OS" style="rounded=0;whiteSpace=wrap;html=1;fillColor=#f5e2e1;strokeColor=none;" vertex="1" parent="1">
                    <mxGeometry x="874" y="777" width="60" height="20" as="geometry"/>
                </mxCell>
                <mxCell id="310" value="" style="rounded=0;whiteSpace=wrap;html=1;fillColor=#eef4fb;strokeColor=none;" vertex="1" parent="1">
                    <mxGeometry x="936" y="777" width="60" height="20" as="geometry"/>
                </mxCell>
                <mxCell id="313" value="USUBJID" style="rounded=0;whiteSpace=wrap;html=1;fillColor=#f8cecc;strokeColor=none;" vertex="1" parent="1">
                    <mxGeometry x="750" y="688" width="60" height="20" as="geometry"/>
                </mxCell>
                <mxCell id="314" value="" style="rounded=0;whiteSpace=wrap;html=1;fillColor=#f5e2e1;strokeColor=none;" vertex="1" parent="1">
                    <mxGeometry x="750" y="711" width="60" height="20" as="geometry"/>
                </mxCell>
                <mxCell id="315" value="" style="rounded=0;whiteSpace=wrap;html=1;fillColor=#f5e2e1;strokeColor=none;" vertex="1" parent="1">
                    <mxGeometry x="750" y="733" width="60" height="20" as="geometry"/>
                </mxCell>
                <mxCell id="316" value="" style="rounded=0;whiteSpace=wrap;html=1;fillColor=#f5e2e1;strokeColor=none;" vertex="1" parent="1">
                    <mxGeometry x="750" y="755" width="60" height="20" as="geometry"/>
                </mxCell>
                <mxCell id="317" value="" style="rounded=0;whiteSpace=wrap;html=1;fillColor=#f5e2e1;strokeColor=none;" vertex="1" parent="1">
                    <mxGeometry x="750" y="777" width="60" height="20" as="geometry"/>
                </mxCell>
                <mxCell id="318" value="Selected and Filtered ADTTE" style="rounded=0;whiteSpace=wrap;html=1;fillColor=#f5f5f5;strokeColor=#666666;fontColor=#000000;" vertex="1" parent="1">
                    <mxGeometry x="750" y="669.5" width="246" height="17.5" as="geometry"/>
                </mxCell>
                <mxCell id="320" value="" style="verticalLabelPosition=bottom;shadow=0;dashed=0;align=center;html=1;verticalAlign=top;strokeWidth=3;shape=mxgraph.mockup.markup.curlyBrace;strokeColor=#999999;fontColor=#000000;fillColor=#eef4fb;rotation=90;" vertex="1" parent="1">
                    <mxGeometry x="935.75" y="605.25" width="250" height="70.5" as="geometry"/>
                </mxCell>
                <mxCell id="321" value="" style="shape=flexArrow;endArrow=classic;html=1;fontColor=#000000;fillColor=#f5f5f5;strokeColor=default;" edge="1" parent="1">
                    <mxGeometry width="50" height="50" relative="1" as="geometry">
                        <mxPoint x="1100" y="640" as="sourcePoint"/>
                        <mxPoint x="1220" y="640" as="targetPoint"/>
                    </mxGeometry>
                </mxCell>
                <mxCell id="322" value="Merge" style="text;html=1;strokeColor=none;fillColor=none;align=center;verticalAlign=middle;whiteSpace=wrap;rounded=0;fontColor=#000000;fontSize=24;" vertex="1" parent="1">
                    <mxGeometry x="1108" y="609.5" width="100" height="18.5" as="geometry"/>
                </mxCell>
                <mxCell id="323" value="STUDYID" style="rounded=0;whiteSpace=wrap;html=1;fillColor=#f8cecc;strokeColor=none;" vertex="1" parent="1">
                    <mxGeometry x="1292" y="598" width="60" height="20" as="geometry"/>
                </mxCell>
                <mxCell id="325" value="AVAL" style="rounded=0;whiteSpace=wrap;html=1;fillColor=#dae8fc;strokeColor=none;" vertex="1" parent="1">
                    <mxGeometry x="1416" y="598" width="60" height="20" as="geometry"/>
                </mxCell>
                <mxCell id="326" value="" style="rounded=0;whiteSpace=wrap;html=1;fillColor=#f5e2e1;strokeColor=none;" vertex="1" parent="1">
                    <mxGeometry x="1292" y="621" width="60" height="20" as="geometry"/>
                </mxCell>
                <mxCell id="328" value="" style="rounded=0;whiteSpace=wrap;html=1;fillColor=#eef4fb;strokeColor=none;" vertex="1" parent="1">
                    <mxGeometry x="1416" y="621" width="60" height="20" as="geometry"/>
                </mxCell>
                <mxCell id="329" value="" style="rounded=0;whiteSpace=wrap;html=1;fillColor=#f5e2e1;strokeColor=none;" vertex="1" parent="1">
                    <mxGeometry x="1292" y="643" width="60" height="20" as="geometry"/>
                </mxCell>
                <mxCell id="331" value="" style="rounded=0;whiteSpace=wrap;html=1;fillColor=#eef4fb;strokeColor=none;" vertex="1" parent="1">
                    <mxGeometry x="1416" y="643" width="60" height="20" as="geometry"/>
                </mxCell>
                <mxCell id="332" value="" style="rounded=0;whiteSpace=wrap;html=1;fillColor=#f5e2e1;strokeColor=none;" vertex="1" parent="1">
                    <mxGeometry x="1292" y="665" width="60" height="20" as="geometry"/>
                </mxCell>
                <mxCell id="334" value="" style="rounded=0;whiteSpace=wrap;html=1;fillColor=#eef4fb;strokeColor=none;" vertex="1" parent="1">
                    <mxGeometry x="1416" y="665" width="60" height="20" as="geometry"/>
                </mxCell>
                <mxCell id="335" value="" style="rounded=0;whiteSpace=wrap;html=1;fillColor=#f5e2e1;strokeColor=none;" vertex="1" parent="1">
                    <mxGeometry x="1292" y="687" width="60" height="20" as="geometry"/>
                </mxCell>
                <mxCell id="337" value="" style="rounded=0;whiteSpace=wrap;html=1;fillColor=#eef4fb;strokeColor=none;" vertex="1" parent="1">
                    <mxGeometry x="1416" y="687" width="60" height="20" as="geometry"/>
                </mxCell>
                <mxCell id="338" value="USUBJID" style="rounded=0;whiteSpace=wrap;html=1;fillColor=#f8cecc;strokeColor=none;" vertex="1" parent="1">
                    <mxGeometry x="1230" y="598" width="60" height="20" as="geometry"/>
                </mxCell>
                <mxCell id="339" value="" style="rounded=0;whiteSpace=wrap;html=1;fillColor=#f5e2e1;strokeColor=none;" vertex="1" parent="1">
                    <mxGeometry x="1230" y="621" width="60" height="20" as="geometry"/>
                </mxCell>
                <mxCell id="340" value="" style="rounded=0;whiteSpace=wrap;html=1;fillColor=#f5e2e1;strokeColor=none;" vertex="1" parent="1">
                    <mxGeometry x="1230" y="643" width="60" height="20" as="geometry"/>
                </mxCell>
                <mxCell id="341" value="" style="rounded=0;whiteSpace=wrap;html=1;fillColor=#f5e2e1;strokeColor=none;" vertex="1" parent="1">
                    <mxGeometry x="1230" y="665" width="60" height="20" as="geometry"/>
                </mxCell>
                <mxCell id="342" value="" style="rounded=0;whiteSpace=wrap;html=1;fillColor=#f5e2e1;strokeColor=none;" vertex="1" parent="1">
                    <mxGeometry x="1230" y="687" width="60" height="20" as="geometry"/>
                </mxCell>
                <mxCell id="343" value="ANL" style="rounded=0;whiteSpace=wrap;html=1;fillColor=#f5f5f5;strokeColor=#666666;fontColor=#000000;" vertex="1" parent="1">
                    <mxGeometry x="1230" y="579.5" width="246" height="17.5" as="geometry"/>
                </mxCell>
                <mxCell id="344" value="AGE" style="rounded=0;whiteSpace=wrap;html=1;fillColor=#dae8fc;strokeColor=none;" vertex="1" parent="1">
                    <mxGeometry x="1354" y="598" width="60" height="20" as="geometry"/>
                </mxCell>
                <mxCell id="345" value="" style="rounded=0;whiteSpace=wrap;html=1;fillColor=#eef4fb;strokeColor=none;" vertex="1" parent="1">
                    <mxGeometry x="1354" y="621" width="60" height="20" as="geometry"/>
                </mxCell>
                <mxCell id="346" value="" style="rounded=0;whiteSpace=wrap;html=1;fillColor=#eef4fb;strokeColor=none;" vertex="1" parent="1">
                    <mxGeometry x="1354" y="643" width="60" height="20" as="geometry"/>
                </mxCell>
                <mxCell id="347" value="" style="rounded=0;whiteSpace=wrap;html=1;fillColor=#eef4fb;strokeColor=none;" vertex="1" parent="1">
                    <mxGeometry x="1354" y="665" width="60" height="20" as="geometry"/>
                </mxCell>
                <mxCell id="348" value="" style="rounded=0;whiteSpace=wrap;html=1;fillColor=#eef4fb;strokeColor=none;" vertex="1" parent="1">
                    <mxGeometry x="1354" y="687" width="60" height="20" as="geometry"/>
                </mxCell>
            </root>
        </mxGraphModel>
    </diagram>
</mxfile>